<?xml version="1.0" encoding="UTF-8" standalone="no"?>
<svg
   xmlns:dc="http://purl.org/dc/elements/1.1/"
   xmlns:cc="http://creativecommons.org/ns#"
   xmlns:rdf="http://www.w3.org/1999/02/22-rdf-syntax-ns#"
   xmlns:svg="http://www.w3.org/2000/svg"
   xmlns="http://www.w3.org/2000/svg"
   width="210mm"
   height="297mm"
   viewBox="0 0 210 297"
   version="1.1"
   id="svg8">
  <defs
     id="defs2" />
  <metadata
     id="metadata5">
    <rdf:RDF>
      <cc:Work
         rdf:about="">
        <dc:format>image/svg+xml</dc:format>
        <dc:type
           rdf:resource="http://purl.org/dc/dcmitype/StillImage" />
        <dc:title></dc:title>
      </cc:Work>
    </rdf:RDF>
  </metadata>
  <g
     id="layer1">
    <path
       id="path1044"
       style="color:#000000;font-style:normal;font-variant:normal;font-weight:normal;font-stretch:normal;font-size:medium;line-height:normal;font-family:sans-serif;font-variant-ligatures:normal;font-variant-position:normal;font-variant-caps:normal;font-variant-numeric:normal;font-variant-alternates:normal;font-variant-east-asian:normal;font-feature-settings:normal;font-variation-settings:normal;text-indent:0;text-align:start;text-decoration:none;text-decoration-line:none;text-decoration-style:solid;text-decoration-color:#000000;letter-spacing:normal;word-spacing:normal;text-transform:none;writing-mode:lr-tb;direction:ltr;text-orientation:mixed;dominant-baseline:auto;baseline-shift:baseline;text-anchor:start;white-space:normal;shape-padding:0;shape-margin:0;inline-size:0;clip-rule:nonzero;display:inline;overflow:visible;visibility:visible;isolation:auto;mix-blend-mode:normal;color-interpolation:sRGB;color-interpolation-filters:linearRGB;solid-color:#000000;solid-opacity:1;vector-effect:none;fill:#000000;fill-opacity:1;fill-rule:evenodd;stroke:none;stroke-width:0.168246;stroke-linecap:butt;stroke-linejoin:miter;stroke-miterlimit:4;stroke-dasharray:none;stroke-dashoffset:0;stroke-opacity:1;color-rendering:auto;image-rendering:auto;shape-rendering:auto;text-rendering:auto;enable-background:accumulate;stop-color:#000000"
       d="m 150.08424,91.912859 -1.30653,0.3733 -3.90482,1.11561 c -4.20736,-0.10581 -8.47066,0.30736 -12.76633,1.31574 -8.19129,1.9214 -16.01479,6.444961 -22.73096,13.633191 -3.59748,-1.15996 -7.10957,-1.69339 -10.307046,-1.41695 -3.805571,0.32903 -7.430418,1.87713 -9.36592,5.12329 l -0.0023,0.004 -1.354839,2.28577 c -25.969481,-4.4263 -53.176436,7.08186 -67.461087,31.03942 -18.5533692,31.11531 -8.264799,71.38594 22.843348,89.93738 31.108418,18.54873 71.383774,8.42381 89.937694,-22.68923 14.29441,-23.97402 11.5311,-53.3522 -4.74835,-74.09366 l 1.35287,-2.2825 c 1.76928,-2.96463 1.61439,-6.53307 0.42489,-9.76386 -0.86774,-2.35685 -2.28748,-4.65321 -4.12597,-6.83433 3.23975,-2.84493 6.5038,-4.42181 10.05697,-5.25507 2.26284,-0.53104 4.8178,-0.66929 7.49023,-0.55665 l 7.56845,3.53185 1.34925,-5.94086 4.21996,-2.73071 -3.30249,-4.95406 5.15649,-6.799181 -6.26093,-1.08867 -0.23002,-2.43595 z" />
    <path
       id="path951"
       style="color:#000000;font-style:normal;font-variant:normal;font-weight:normal;font-stretch:normal;font-size:medium;line-height:normal;font-family:sans-serif;font-variant-ligatures:normal;font-variant-position:normal;font-variant-caps:normal;font-variant-numeric:normal;font-variant-alternates:normal;font-variant-east-asian:normal;font-feature-settings:normal;font-variation-settings:normal;text-indent:0;text-align:start;text-decoration:none;text-decoration-line:none;text-decoration-style:solid;text-decoration-color:#000000;letter-spacing:normal;word-spacing:normal;text-transform:none;writing-mode:lr-tb;direction:ltr;text-orientation:mixed;dominant-baseline:auto;baseline-shift:baseline;text-anchor:start;white-space:normal;shape-padding:0;shape-margin:0;inline-size:0;clip-rule:nonzero;display:inline;overflow:visible;visibility:visible;isolation:auto;mix-blend-mode:normal;color-interpolation:sRGB;color-interpolation-filters:linearRGB;solid-color:#000000;solid-opacity:1;vector-effect:none;fill:#302d2e;fill-opacity:1;fill-rule:evenodd;stroke:none;stroke-width:0.90169;stroke-linecap:butt;stroke-linejoin:miter;stroke-miterlimit:4;stroke-dasharray:none;stroke-dashoffset:0;stroke-opacity:1;color-rendering:auto;image-rendering:auto;shape-rendering:auto;text-rendering:auto;enable-background:accumulate;stop-color:#000000"
       d="m 77.352305,115.98509 c -5.126548,0.0238 -10.272258,0.67822 -15.320907,1.98018 -16.15568,4.16627 -29.976463,14.6165 -38.387049,29.02573 -8.678272,14.24961 -11.301382,31.37671 -7.286172,47.57059 4.015209,16.19388 14.33586,30.11136 28.665909,38.65617 14.330049,8.5448 31.480633,11.00818 47.636311,6.8419 16.155673,-4.16628 29.976123,-14.61649 38.386723,-29.02574 8.67826,-14.24961 11.30171,-31.37669 7.2865,-47.57058 -2.18723,-8.82137 -6.24597,-16.9667 -11.80418,-23.93662 l -3.67709,6.13737 -0.002,0.002 c -1.96853,3.29901 -6.04108,4.58885 -10.58702,4.3836 -4.54736,-0.20532 -9.79044,-1.86359 -14.841466,-4.87519 -5.051082,-3.01164 -8.984432,-6.82522 -11.306987,-10.71847 -2.322555,-3.89324 -3.096701,-8.08 -1.131065,-11.37303 l 7.03e-4,-0.002 3.666579,-6.11962 c -3.724452,-0.66572 -7.50658,-0.99392 -11.299526,-0.97627 z" />
    <path
       id="path957"
       style="color:#000000;font-style:normal;font-variant:normal;font-weight:normal;font-stretch:normal;font-size:medium;line-height:normal;font-family:sans-serif;font-variant-ligatures:normal;font-variant-position:normal;font-variant-caps:normal;font-variant-numeric:normal;font-variant-alternates:normal;font-variant-east-asian:normal;font-feature-settings:normal;font-variation-settings:normal;text-indent:0;text-align:start;text-decoration:none;text-decoration-line:none;text-decoration-style:solid;text-decoration-color:#000000;letter-spacing:normal;word-spacing:normal;text-transform:none;writing-mode:lr-tb;direction:ltr;text-orientation:mixed;dominant-baseline:auto;baseline-shift:baseline;text-anchor:start;white-space:normal;shape-padding:0;shape-margin:0;inline-size:0;clip-rule:nonzero;display:inline;overflow:visible;visibility:visible;isolation:auto;mix-blend-mode:normal;color-interpolation:sRGB;color-interpolation-filters:linearRGB;solid-color:#000000;solid-opacity:1;vector-effect:none;fill:#333031;fill-opacity:1;fill-rule:evenodd;stroke:none;stroke-width:3.13042;stroke-linecap:butt;stroke-linejoin:miter;stroke-miterlimit:4;stroke-dasharray:none;stroke-dashoffset:0;stroke-opacity:1;color-rendering:auto;image-rendering:auto;shape-rendering:auto;text-rendering:auto;enable-background:accumulate;stop-color:#000000"
       d="m 100.82657,111.54563 c -3.494326,0.0107 -5.948696,1.10714 -7.042011,2.94069 l -7.81e-4,0.002 -6.110752,10.19926 c -1.72e-4,1.7e-4 -1.64e-4,4.9e-4 -3.36e-4,6.3e-4 l -7.8e-4,0.002 c -1.165042,1.95442 -0.846895,4.84386 1.132712,8.16223 1.980364,3.31964 5.56113,6.85499 10.221602,9.63373 4.660536,2.77878 9.494876,4.26111 13.379506,4.43651 3.88462,0.17539 6.59734,-0.91324 7.75903,-2.86216 l 0.002,-0.002 6.11075,-10.19926 c 1.16249,-1.94783 0.84053,-4.88044 -1.1498,-8.23453 -0.76498,-1.28914 -1.76856,-2.60907 -2.97585,-3.90383 -1.06718,2.24024 -2.36073,3.94173 -3.75926,5.17521 -0.29543,0.46923 -0.59029,0.94893 -0.88493,1.44816 l -0.0443,0.0753 -0.58953,0.78406 -0.0871,0.0848 c -1.17926,1.14588 -2.81737,1.38012 -4.47429,1.22078 -1.65693,-0.15935 -3.4359,-0.7588 -5.13315,-1.7702 v -3.2e-4 c -1.71748,-1.02373 -3.08277,-2.2833 -3.98135,-3.65965 -0.89858,-1.37634 -1.39593,-2.97291 -0.86325,-4.51997 l 0.0506,-0.14689 0.0785,-0.13407 c 0.15258,-0.2608 0.60594,-1.06074 0.60594,-1.06074 l 0.0105,-0.0188 0.0112,-0.0184 c 1.4196,-2.35493 2.93071,-4.52488 4.51832,-6.51822 -2.15757,-0.66481 -4.22154,-1.03414 -6.06901,-1.10312 -0.24211,-0.009 -0.4798,-0.0132 -0.71275,-0.0125 z" />
    <path
       id="path13"
       style="color:#000000;font-style:normal;font-variant:normal;font-weight:normal;font-stretch:normal;font-size:medium;line-height:normal;font-family:sans-serif;font-variant-ligatures:normal;font-variant-position:normal;font-variant-caps:normal;font-variant-numeric:normal;font-variant-alternates:normal;font-variant-east-asian:normal;font-feature-settings:normal;font-variation-settings:normal;text-indent:0;text-align:start;text-decoration:none;text-decoration-line:none;text-decoration-style:solid;text-decoration-color:#000000;letter-spacing:normal;word-spacing:normal;text-transform:none;writing-mode:lr-tb;direction:ltr;text-orientation:mixed;dominant-baseline:auto;baseline-shift:baseline;text-anchor:start;white-space:normal;shape-padding:0;shape-margin:0;inline-size:0;clip-rule:nonzero;display:inline;overflow:visible;visibility:visible;isolation:auto;mix-blend-mode:normal;color-interpolation:sRGB;color-interpolation-filters:linearRGB;solid-color:#000000;solid-opacity:1;vector-effect:none;fill:#4e4e4e;fill-opacity:0.995984;fill-rule:evenodd;stroke:none;stroke-width:0.6872;stroke-linecap:butt;stroke-linejoin:miter;stroke-miterlimit:4;stroke-dasharray:none;stroke-dashoffset:0;stroke-opacity:1;color-rendering:auto;image-rendering:auto;shape-rendering:auto;text-rendering:auto;enable-background:accumulate;stop-color:#000000"
       d="m 92.588765,116.48161 -4.915942,8.20528 c -1.72e-4,1.7e-4 -1.72e-4,4.9e-4 -3.36e-4,6.4e-4 l -7.8e-4,0.002 c -1.165042,1.95442 -0.846895,4.84387 1.132712,8.16224 1.644421,2.75651 4.395042,5.66035 7.948305,8.15763 l 5.413446,-11.12723 c -5.498366,-4.08399 -9.037326,-9.1478 -9.577194,-13.40046 z m -6.583946,4.8982 c -3.010895,0.42582 -5.343587,1.61438 -6.621406,3.53974 -3.526035,5.30658 2.498469,14.35922 13.466915,20.23619 6.112596,3.27563 12.471072,4.87173 17.512702,4.72535 -4.07593,-0.51842 -8.57918,-2.10711 -12.940156,-4.70728 -5.051074,-3.01163 -8.984432,-6.82521 -11.306987,-10.71846 -2.322555,-3.89324 -3.096701,-8.08 -1.131057,-11.37304 l 6.33e-4,-0.002 z m -42.921806,9.22166 c -6.99e-4,0.002 -0.0013,0.002 -0.002,0.004 7e-4,-4.5e-4 0.0013,-6.4e-4 0.002,-0.002 z m -0.002,0.004 c -6.568172,4.63982 -12.330237,10.71441 -16.714851,18.06608 -16.7663854,28.1231 -7.573066,64.47824 20.549351,81.24806 16.475698,9.82357 35.789665,10.61524 52.333391,4.02839 -9.721856,-1.17087 -19.383097,-4.25994 -28.335979,-9.59813 C 38.388926,204.95699 26.72505,164.02346 43.08106,130.6055 Z m 65.616937,3.04847 -5.19853,11.09208 c 1.77224,0.74247 3.51696,1.29566 5.17389,1.66111 l 5.51532,-10.73883 c -1.78055,-0.47143 -3.64279,-1.17941 -5.49068,-2.01436 z" />
    <path
       style="color:#000000;font-style:normal;font-variant:normal;font-weight:normal;font-stretch:normal;font-size:medium;line-height:normal;font-family:sans-serif;font-variant-ligatures:normal;font-variant-position:normal;font-variant-caps:normal;font-variant-numeric:normal;font-variant-alternates:normal;font-variant-east-asian:normal;font-feature-settings:normal;font-variation-settings:normal;text-indent:0;text-align:start;text-decoration:none;text-decoration-line:none;text-decoration-style:solid;text-decoration-color:#000000;letter-spacing:normal;word-spacing:normal;text-transform:none;writing-mode:lr-tb;direction:ltr;text-orientation:mixed;dominant-baseline:auto;baseline-shift:baseline;text-anchor:start;white-space:normal;shape-padding:0;shape-margin:0;inline-size:0;clip-rule:nonzero;display:inline;overflow:visible;visibility:visible;isolation:auto;mix-blend-mode:normal;color-interpolation:sRGB;color-interpolation-filters:linearRGB;solid-color:#000000;solid-opacity:1;vector-effect:none;fill:#4d4d4d;fill-opacity:1;fill-rule:evenodd;stroke:none;stroke-width:3.09854;stroke-linecap:butt;stroke-linejoin:miter;stroke-miterlimit:4;stroke-dasharray:none;stroke-dashoffset:0;stroke-opacity:1;color-rendering:auto;image-rendering:auto;shape-rendering:auto;text-rendering:auto;enable-background:accumulate;stop-color:#000000"
       d="m 121.97681,157.50166 c 5.8524,7.07778 6.20888,16.44362 0.79624,20.91865 -5.41265,4.47503 -14.54453,2.36448 -20.39613,-4.71394 -5.852386,-7.07779 -6.208876,-16.44362 -0.79623,-20.91865 5.41264,-4.47503 14.54452,-2.36448 20.39612,4.71394 z"
       id="path15" />
    <path
       style="color:#000000;font-style:normal;font-variant:normal;font-weight:normal;font-stretch:normal;font-size:medium;line-height:normal;font-family:sans-serif;font-variant-ligatures:normal;font-variant-position:normal;font-variant-caps:normal;font-variant-numeric:normal;font-variant-alternates:normal;font-variant-east-asian:normal;font-feature-settings:normal;font-variation-settings:normal;text-indent:0;text-align:start;text-decoration:none;text-decoration-line:none;text-decoration-style:solid;text-decoration-color:#000000;letter-spacing:normal;word-spacing:normal;text-transform:none;writing-mode:lr-tb;direction:ltr;text-orientation:mixed;dominant-baseline:auto;baseline-shift:baseline;text-anchor:start;white-space:normal;shape-padding:0;shape-margin:0;inline-size:0;clip-rule:nonzero;display:inline;overflow:visible;visibility:visible;isolation:auto;mix-blend-mode:normal;color-interpolation:sRGB;color-interpolation-filters:linearRGB;solid-color:#000000;solid-opacity:1;vector-effect:none;fill:#4d4d4d;fill-opacity:1;fill-rule:evenodd;stroke:none;stroke-width:1.82511;stroke-linecap:butt;stroke-linejoin:miter;stroke-miterlimit:4;stroke-dasharray:none;stroke-dashoffset:0;stroke-opacity:1;color-rendering:auto;image-rendering:auto;shape-rendering:auto;text-rendering:auto;enable-background:accumulate;stop-color:#000000"
       d="m 117.7328,187.27756 c 3.44764,4.16914 3.65774,9.68641 0.46924,12.32241 -3.18849,2.63601 -8.56786,1.39229 -12.01442,-2.77774 -3.44763,-4.16915 -3.65773,-9.68641 -0.46924,-12.32242 3.1885,-2.636 8.56787,-1.39229 12.01442,2.77775 z"
       id="path17" />
    <path
       id="path975"
       style="color:#000000;font-style:normal;font-variant:normal;font-weight:normal;font-stretch:normal;font-size:medium;line-height:normal;font-family:sans-serif;font-variant-ligatures:normal;font-variant-position:normal;font-variant-caps:normal;font-variant-numeric:normal;font-variant-alternates:normal;font-variant-east-asian:normal;font-feature-settings:normal;font-variation-settings:normal;text-indent:0;text-align:start;text-decoration:none;text-decoration-line:none;text-decoration-style:solid;text-decoration-color:#000000;letter-spacing:normal;word-spacing:normal;text-transform:none;writing-mode:lr-tb;direction:ltr;text-orientation:mixed;dominant-baseline:auto;baseline-shift:baseline;text-anchor:start;white-space:normal;shape-padding:0;shape-margin:0;inline-size:0;clip-rule:nonzero;display:inline;overflow:visible;visibility:visible;isolation:auto;mix-blend-mode:normal;color-interpolation:sRGB;color-interpolation-filters:linearRGB;solid-color:#000000;solid-opacity:1;vector-effect:none;fill:#ccab7f;fill-opacity:1;fill-rule:evenodd;stroke:none;stroke-width:3.13042;stroke-linecap:butt;stroke-linejoin:miter;stroke-miterlimit:4;stroke-dasharray:none;stroke-dashoffset:0;stroke-opacity:1;color-rendering:auto;image-rendering:auto;shape-rendering:auto;text-rendering:auto;enable-background:accumulate;stop-color:#000000"
       d="m 148.24435,97.354799 -2.83422,0.76499 -0.2793,-0.0256 c 0.2222,0.0203 0.0388,0.0102 -0.163,0.005 l -0.002,-3.3e-4 h -0.002 c -0.97123,-0.0289 -1.94478,-0.027 -2.92097,0.006 -0.48809,0.0168 -0.9768,0.0415 -1.46624,0.0743 -2.44722,0.16392 -4.91184,0.52941 -7.39822,1.11266 -4.46535,1.047751 -8.84772,2.936991 -12.9865,5.761431 -0.59125,0.4035 -1.17751,0.82616 -1.75836,1.26809 -4.64678,3.5355 -8.94548,8.30988 -12.65658,14.46325 -0.0159,0.0281 -0.28943,0.50862 -0.49422,0.86489 -0.0669,0.29629 0.002,0.90217 0.53431,1.71762 0.57066,0.87408 1.60086,1.86999 2.96271,2.68175 1.32644,0.79044 2.72528,1.23708 3.83022,1.34334 0.65782,0.0633 1.16911,-0.01 1.51356,-0.11666 0.13778,-0.0426 0.24882,-0.0906 0.33189,-0.13735 0.0416,-0.0233 0.0761,-0.0465 0.10352,-0.0683 l 0.30658,-0.40813 c 4.25001,-7.17216 8.86576,-11.60449 13.78731,-14.24965 0.44741,-0.24047 0.89749,-0.46627 1.34992,-0.67791 1.80968,-0.84657 3.65897,-1.46824 5.54521,-1.91084 v -6.4e-4 c 3.04316,-0.71416 6.22304,-0.78095 9.38564,-0.60529 l 0.30329,0.0171 3.07673,1.44356 0.48536,-2.13002 1.90722,-1.18265 -2.55786,-3.72409 2.60322,-3.38003 -2.20461,-0.437711 z" />
    <path
       id="path23"
       style="color:#000000;font-style:normal;font-variant:normal;font-weight:normal;font-stretch:normal;font-size:medium;line-height:normal;font-family:sans-serif;font-variant-ligatures:normal;font-variant-position:normal;font-variant-caps:normal;font-variant-numeric:normal;font-variant-alternates:normal;font-variant-east-asian:normal;font-feature-settings:normal;font-variation-settings:normal;text-indent:0;text-align:start;text-decoration:none;text-decoration-line:none;text-decoration-style:solid;text-decoration-color:#000000;letter-spacing:normal;word-spacing:normal;text-transform:none;writing-mode:lr-tb;direction:ltr;text-orientation:mixed;dominant-baseline:auto;baseline-shift:baseline;text-anchor:start;white-space:normal;shape-padding:0;shape-margin:0;inline-size:0;clip-rule:nonzero;display:inline;overflow:visible;visibility:visible;isolation:auto;mix-blend-mode:normal;color-interpolation:sRGB;color-interpolation-filters:linearRGB;solid-color:#000000;solid-opacity:1;vector-effect:none;fill:#333031;fill-opacity:1;fill-rule:nonzero;stroke:none;stroke-width:0.168246;stroke-linecap:round;stroke-linejoin:miter;stroke-miterlimit:4;stroke-dasharray:none;stroke-dashoffset:0;stroke-opacity:1;color-rendering:auto;image-rendering:auto;shape-rendering:auto;text-rendering:auto;enable-background:accumulate;stop-color:#000000"
       d="m 148.24435,97.354799 -2.83422,0.76499 -0.2793,-0.0256 c 0.2222,0.0203 0.0388,0.0102 -0.163,0.005 l -0.002,-3.3e-4 h -0.002 c -1.42346,-0.0424 -2.85193,-0.018 -4.28633,0.0749 -0.24709,0.10625 -0.48578,0.23441 -0.74955,0.36804 -2.25471,1.14488 0.40941,0.84045 0.77157,1.543461 0.0687,0.0996 -1.7881,0.72777 -1.85202,0.92569 -0.19722,0.59855 0.62684,1.76735 0.46464,2.31436 -0.20752,0.64598 -1.52063,0.84888 -1.69725,1.38902 -0.17728,0.54976 0.61486,1.24148 1.38935,1.85103 -0.12572,1.00275 -0.14666,1.91389 -0.0473,2.71264 1.97324,-0.18474 3.97838,-0.17112 5.97668,-0.0601 l 0.30329,0.0171 3.07674,1.44357 0.48536,-2.13003 1.90721,-1.18265 -2.55786,-3.72409 2.60323,-3.38003 -2.20462,-0.437711 z m -13.29372,1.5589 c -0.58939,0.11437 -1.17975,0.23941 -1.77151,0.37823 -0.0569,0.0134 -0.11366,0.0287 -0.17056,0.0424 -1.26615,2.796601 -1.79769,5.383151 -1.83921,7.557931 -0.0307,1.60967 0.17899,2.99634 0.59709,4.0941 0.50418,-0.19407 1.01112,-0.37267 1.52111,-0.53596 -0.33212,-0.86489 -0.57887,-2.07164 -0.55107,-3.52823 0.0421,-2.20599 0.64893,-4.97214 2.21415,-8.008451 z m -8.74519,2.756021 c -0.63608,0.28796 -1.26836,0.5954 -1.89672,0.92206 -0.80168,3.12474 -0.85507,5.88402 -0.47417,8.10966 0.27227,1.5909 0.74023,2.91632 1.35944,3.91731 0.43817,-0.32588 0.87879,-0.63499 1.32231,-0.92766 -0.46429,-0.7822 -0.90202,-1.88295 -1.13665,-3.25385 -0.39042,-2.28129 -0.28294,-5.28608 0.82579,-8.76752 z m -8.12281,4.92645 c -0.58706,0.45637 -1.16839,0.93282 -1.74358,1.42944 -0.29564,3.51578 0.19341,6.46574 1.05187,8.72119 0.54809,1.43999 1.22451,2.60721 1.98116,3.46087 0.35328,-0.42471 0.7085,-0.83528 1.066,-1.23063 -0.55754,-0.66942 -1.13106,-1.60251 -1.58223,-2.78789 -0.88537,-2.32614 -1.36856,-5.58299 -0.77322,-9.59298 z m -7.29373,7.10774 c -0.49884,0.60009 -0.99094,1.21844 -1.47543,1.85662 0.26653,3.06734 1.07332,5.58891 2.10636,7.50864 0.97257,1.80736 2.10802,3.10687 3.28178,3.8115 l 0.16463,-0.21886 c 0.22891,-0.38629 0.45938,-0.76215 0.69041,-1.1327 -0.82174,-0.51835 -1.88251,-1.57901 -2.75634,-3.20292 -1.10166,-2.04724 -1.96035,-4.94555 -2.01141,-8.62228 z" />
    <path
       id="path940"
       style="color:#000000;font-style:normal;font-variant:normal;font-weight:normal;font-stretch:normal;font-size:medium;line-height:normal;font-family:sans-serif;font-variant-ligatures:normal;font-variant-position:normal;font-variant-caps:normal;font-variant-numeric:normal;font-variant-alternates:normal;font-variant-east-asian:normal;font-feature-settings:normal;font-variation-settings:normal;text-indent:0;text-align:start;text-decoration:none;text-decoration-line:none;text-decoration-style:solid;text-decoration-color:#000000;letter-spacing:normal;word-spacing:normal;text-transform:none;writing-mode:lr-tb;direction:ltr;text-orientation:mixed;dominant-baseline:auto;baseline-shift:baseline;text-anchor:start;white-space:normal;shape-padding:0;shape-margin:0;inline-size:0;clip-rule:nonzero;display:inline;overflow:visible;visibility:visible;isolation:auto;mix-blend-mode:normal;color-interpolation:sRGB;color-interpolation-filters:linearRGB;solid-color:#000000;solid-opacity:1;vector-effect:none;fill:#800000;fill-opacity:1;fill-rule:evenodd;stroke:none;stroke-width:0.168246;stroke-linecap:butt;stroke-linejoin:miter;stroke-miterlimit:4;stroke-dasharray:none;stroke-dashoffset:0;stroke-opacity:1;color-rendering:auto;image-rendering:auto;shape-rendering:auto;text-rendering:auto;enable-background:accumulate;stop-color:#000000"
       d="m 153.37194,52.398529 -0.86751,0.10417 0.59511,30.24781 -7.61872,-9.78291 -0.77518,0.36639 2.79216,12.38515 -20.02095,-10.20222 -0.53695,0.67233 12.02302,14.44484 -37.57145,-1.46229 -0.11566,0.86686 41.47264,9.53975 -12.835,6.720641 0.24383,0.82645 14.80763,-1.36668 -11.42825,15.28608 0.59675,0.62763 9.80624,-6.59741 -8.97717,22.74641 0.75217,0.43475 20.08307,-25.23594 5.05821,38.87241 0.87246,-0.0145 3.26635,-33.73103 13.3141,11.68028 0.68481,-0.52149 -9.82399,-20.30224 24.49263,5.36416 0.34536,-0.78899 -13.45903,-9.39121 8.65481,-2.69884 -15.11355,-5.032921 24.26357,-13.24774 -0.32203,-0.81001 -27.02781,7.10576 8.30748,-13.27205 -0.59642,-0.61087 -11.56493,6.8649 -0.58821,-12.53565 -0.8373,-0.16397 -5.72266,12.35852 z" />
    <path
       style="color:#000000;font-style:normal;font-variant:normal;font-weight:normal;font-stretch:normal;font-size:medium;line-height:normal;font-family:sans-serif;font-variant-ligatures:normal;font-variant-position:normal;font-variant-caps:normal;font-variant-numeric:normal;font-variant-alternates:normal;font-variant-east-asian:normal;font-feature-settings:normal;font-variation-settings:normal;text-indent:0;text-align:start;text-decoration:none;text-decoration-line:none;text-decoration-style:solid;text-decoration-color:#000000;letter-spacing:normal;word-spacing:normal;text-transform:none;writing-mode:lr-tb;direction:ltr;text-orientation:mixed;dominant-baseline:auto;baseline-shift:baseline;text-anchor:start;white-space:normal;shape-padding:0;shape-margin:0;inline-size:0;clip-rule:nonzero;display:inline;overflow:visible;visibility:visible;isolation:auto;mix-blend-mode:normal;color-interpolation:sRGB;color-interpolation-filters:linearRGB;solid-color:#000000;solid-opacity:1;vector-effect:none;fill:#ffcc00;fill-opacity:1;fill-rule:evenodd;stroke:none;stroke-width:0.588752;stroke-linecap:butt;stroke-linejoin:miter;stroke-miterlimit:4;stroke-dasharray:none;stroke-dashoffset:0;stroke-opacity:1;color-rendering:auto;image-rendering:auto;shape-rendering:auto;text-rendering:auto;enable-background:accumulate;stop-color:#000000"
       d="m 142.74425,125.57624 6.36498,-16.12793 -7.3589,4.95071 8.0569,-10.77656 -10.58477,0.97677 9.30873,-4.874121 -28.57509,-6.57286 25.84523,1.00594 -8.48224,-10.1908 13.97885,7.12338 -2.00943,-8.91359 5.65082,7.25572 -0.41631,-21.16012 4.63305,20.78777 4.20121,-9.07296 0.41709,8.89218 8.1736,-4.85163 -5.96285,9.52631 18.8354,-4.95213 -16.85734,9.20398 9.90578,3.298681 -5.50292,1.71614 9.51403,6.63847 -17.00944,-3.7254 6.84902,14.15428 -9.35627,-8.20821 -2.24463,23.18182 -3.48013,-26.74528 z"
       id="path934" />
  </g>
</svg>
