<svg xmlns="http://www.w3.org/2000/svg" version="1.1" xmlns:xlink="http://www.w3.org/1999/xlink" xmlns:svgjs="http://svgjs.com/svgjs" width="1440" height="560" preserveAspectRatio="none" viewBox="0 0 1440 560"><g mask="url(&quot;#SvgjsMask1066&quot;)" fill="none"><rect width="1440" height="560" x="0" y="0" fill="url(#SvgjsLinearGradient1067)"></rect><path d="M411 295L410 665" stroke-width="10" stroke="url(#SvgjsLinearGradient1068)" stroke-linecap="round" class="Down"></path><path d="M908 460L907 831" stroke-width="10" stroke="url(#SvgjsLinearGradient1068)" stroke-linecap="round" class="Down"></path><path d="M310 159L309 383" stroke-width="8" stroke="url(#SvgjsLinearGradient1068)" stroke-linecap="round" class="Down"></path><path d="M1270 68L1269 -189" stroke-width="8" stroke="url(#SvgjsLinearGradient1069)" stroke-linecap="round" class="Up"></path><path d="M33 476L32 835" stroke-width="8" stroke="url(#SvgjsLinearGradient1069)" stroke-linecap="round" class="Up"></path><path d="M1419 314L1418 131" stroke-width="6" stroke="url(#SvgjsLinearGradient1068)" stroke-linecap="round" class="Down"></path><path d="M1392 358L1391 666" stroke-width="6" stroke="url(#SvgjsLinearGradient1068)" stroke-linecap="round" class="Down"></path><path d="M1419 466L1418 662" stroke-width="8" stroke="url(#SvgjsLinearGradient1069)" stroke-linecap="round" class="Up"></path><path d="M218 173L217 576" stroke-width="6" stroke="url(#SvgjsLinearGradient1068)" stroke-linecap="round" class="Down"></path><path d="M1036 425L1035 785" stroke-width="8" stroke="url(#SvgjsLinearGradient1068)" stroke-linecap="round" class="Down"></path><path d="M948 554L947 707" stroke-width="6" stroke="url(#SvgjsLinearGradient1068)" stroke-linecap="round" class="Down"></path><path d="M1439 169L1438 -162" stroke-width="6" stroke="url(#SvgjsLinearGradient1068)" stroke-linecap="round" class="Down"></path><path d="M64 473L63 882" stroke-width="8" stroke="url(#SvgjsLinearGradient1068)" stroke-linecap="round" class="Down"></path><path d="M312 146L311 -235" stroke-width="8" stroke="url(#SvgjsLinearGradient1068)" stroke-linecap="round" class="Down"></path><path d="M900 319L899 39" stroke-width="6" stroke="url(#SvgjsLinearGradient1068)" stroke-linecap="round" class="Down"></path><path d="M220 233L219 -149" stroke-width="6" stroke="url(#SvgjsLinearGradient1068)" stroke-linecap="round" class="Down"></path><path d="M438 95L437 -52" stroke-width="8" stroke="url(#SvgjsLinearGradient1069)" stroke-linecap="round" class="Up"></path><path d="M407 383L406 104" stroke-width="6" stroke="url(#SvgjsLinearGradient1069)" stroke-linecap="round" class="Up"></path><path d="M694 530L693 345" stroke-width="8" stroke="url(#SvgjsLinearGradient1068)" stroke-linecap="round" class="Down"></path><path d="M971 491L970 737" stroke-width="6" stroke="url(#SvgjsLinearGradient1069)" stroke-linecap="round" class="Up"></path><path d="M472 89L471 477" stroke-width="10" stroke="url(#SvgjsLinearGradient1068)" stroke-linecap="round" class="Down"></path><path d="M1404 541L1403 911" stroke-width="10" stroke="url(#SvgjsLinearGradient1068)" stroke-linecap="round" class="Down"></path><path d="M191 511L190 241" stroke-width="10" stroke="url(#SvgjsLinearGradient1069)" stroke-linecap="round" class="Up"></path><path d="M834 51L833 -183" stroke-width="6" stroke="url(#SvgjsLinearGradient1068)" stroke-linecap="round" class="Down"></path><path d="M714 356L713 97" stroke-width="8" stroke="url(#SvgjsLinearGradient1069)" stroke-linecap="round" class="Up"></path><path d="M72 162L71 -220" stroke-width="10" stroke="url(#SvgjsLinearGradient1069)" stroke-linecap="round" class="Up"></path><path d="M1135 530L1134 743" stroke-width="8" stroke="url(#SvgjsLinearGradient1069)" stroke-linecap="round" class="Up"></path><path d="M1304 465L1303 130" stroke-width="6" stroke="url(#SvgjsLinearGradient1069)" stroke-linecap="round" class="Up"></path><path d="M498 473L497 683" stroke-width="8" stroke="url(#SvgjsLinearGradient1069)" stroke-linecap="round" class="Up"></path><path d="M77 516L76 707" stroke-width="8" stroke="url(#SvgjsLinearGradient1068)" stroke-linecap="round" class="Down"></path><path d="M1160 551L1159 872" stroke-width="8" stroke="url(#SvgjsLinearGradient1068)" stroke-linecap="round" class="Down"></path><path d="M43 400L42 -8" stroke-width="8" stroke="url(#SvgjsLinearGradient1069)" stroke-linecap="round" class="Up"></path><path d="M1164 426L1163 769" stroke-width="10" stroke="url(#SvgjsLinearGradient1068)" stroke-linecap="round" class="Down"></path><path d="M547 145L546 -145" stroke-width="10" stroke="url(#SvgjsLinearGradient1068)" stroke-linecap="round" class="Down"></path><path d="M796 138L795 -164" stroke-width="10" stroke="url(#SvgjsLinearGradient1069)" stroke-linecap="round" class="Up"></path><path d="M86 128L85 372" stroke-width="10" stroke="url(#SvgjsLinearGradient1069)" stroke-linecap="round" class="Up"></path></g><defs><mask id="SvgjsMask1066"><rect width="1440" height="560" fill="#ffffff"></rect></mask><linearGradient x1="0%" y1="50%" x2="100%" y2="50%" gradientUnits="userSpaceOnUse" id="SvgjsLinearGradient1067"><stop stop-color="#0e2a47" offset="0"></stop><stop stop-color="rgba(125, 2, 71, 1)" offset="0.89"></stop><stop stop-color="rgba(158, 0, 89, 1)" offset="1"></stop></linearGradient><linearGradient x1="0%" y1="0%" x2="0%" y2="100%" id="SvgjsLinearGradient1068"><stop stop-color="rgba(204, 11, 11, 0)" offset="0"></stop><stop stop-color="rgba(204, 11, 11, 1)" offset="1"></stop></linearGradient><linearGradient x1="0%" y1="100%" x2="0%" y2="0%" id="SvgjsLinearGradient1069"><stop stop-color="rgba(204, 11, 11, 0)" offset="0"></stop><stop stop-color="rgba(204, 11, 11, 1)" offset="1"></stop></linearGradient></defs></svg>